<?xml version="1.0" standalone="no"?>
<!DOCTYPE svg PUBLIC "-//W3C//DTD SVG 20010904//EN"
 "http://www.w3.org/TR/2001/REC-SVG-20010904/DTD/svg10.dtd">
<svg version="1.0" xmlns="http://www.w3.org/2000/svg"
 width="250.000000pt" height="263.000000pt" viewBox="0 0 250.000000 263.000000"
 preserveAspectRatio="xMidYMid meet">

<g transform="translate(0,263) scale(0.1,-0.1)"
fill="#263238">
<path d="M1080 2611 c-234 -35 -460 -171 -606 -364 -95 -126 -163 -308 -179
-474 l-7 -73 350 0 349 0 6 53 c9 69 46 182 82 243 16 27 58 78 94 114 294
292 767 193 933 -195 21 -49 22 -37 4 30 -83 307 -344 562 -661 646 -80 22
-280 32 -365 20z"/>
<path d="M1845 1653 c-18 -117 -78 -232 -151 -290 -172 -135 -398 -132 -557 7
-51 46 -79 87 -114 169 -19 44 -22 48 -17 21 3 -19 16 -60 28 -90 97 -240 325
-384 585 -368 42 3 69 3 61 0 -8 -3 -19 -11 -25 -17 -148 -180 -241 -285 -253
-285 -9 0 -13 -3 -9 -6 11 -11 161 37 241 77 257 130 436 370 490 660 9 47 16
102 16 122 l0 37 -145 0 -144 0 -6 -37z"/>
<path d="M167 425 c-81 -31 -132 -90 -156 -182 -26 -97 36 -197 140 -227 47
-14 65 -15 103 -5 46 11 58 20 69 52 6 16 4 16 -23 2 -34 -17 -122 -20 -152
-4 -65 35 -62 215 5 287 54 59 135 70 187 26 17 -15 32 -25 33 -23 1 2 8 14
15 27 12 21 10 24 -25 39 -51 22 -149 26 -196 8z"/>
<path d="M591 429 c-102 -31 -171 -126 -171 -236 0 -91 51 -155 145 -179 65
-17 114 -10 185 26 110 56 160 215 99 315 -39 65 -167 102 -258 74z m152 -50
c67 -52 47 -220 -35 -297 -59 -54 -148 -45 -181 18 -39 76 4 237 76 280 43 26
107 26 140 -1z"/>
<path d="M957 413 c-4 -22 -1 -23 50 -23 l55 0 -7 -52 c-4 -29 -18 -100 -32
-158 -41 -180 -42 -160 10 -160 45 0 46 1 53 38 10 57 53 263 62 297 8 28 12
30 60 33 46 3 52 6 52 25 0 22 -2 22 -149 22 -147 0 -150 0 -154 -22z"/>
<path d="M1927 429 c-55 -16 -132 -90 -151 -146 -44 -129 12 -239 141 -273 53
-13 127 3 148 33 23 32 18 39 -15 22 -16 -8 -52 -15 -80 -15 -43 0 -56 5 -80
28 -49 49 -52 145 -7 233 28 55 77 89 129 89 41 0 98 -24 98 -40 0 -19 17 -10
28 15 10 23 9 26 -20 41 -39 20 -140 27 -191 13z"/>
<path d="M1350 424 c0 -3 -13 -72 -29 -153 -17 -81 -27 -159 -24 -172 16 -66
116 -110 202 -89 111 26 134 60 185 278 l33 142 -26 0 c-26 0 -27 -3 -50 -116
-41 -216 -73 -264 -172 -264 -65 0 -84 17 -82 77 1 44 42 245 58 286 6 15 1
17 -44 17 -28 0 -51 -3 -51 -6z"/>
<path d="M2357 408 c-67 -112 -139 -226 -182 -288 -73 -106 -70 -100 -36 -100
26 0 34 7 63 60 l33 60 71 0 c80 0 84 -4 84 -82 l0 -38 51 0 c48 0 51 1 46 23
-8 31 -54 282 -62 340 -6 41 -10 47 -31 47 -14 0 -29 -9 -37 -22z m8 -153 c4
-31 5 -58 2 -61 -3 -3 -25 -4 -50 -2 l-46 3 35 58 c20 31 39 57 44 57 5 0 12
-25 15 -55z"/>
</g>
</svg>
