<svg xmlns="http://www.w3.org/2000/svg" width="45" height="50" viewBox="0 0 45 50" fill="none">
  <path fill-rule="evenodd" clip-rule="evenodd" d="M20.7935 16.4569V0.434112C22.6532 0.476918 24.5058 0.740752 26.3083 1.23277C26.1223 2.33091 26.5944 3.42901 27.51 4.06365L22.1883 16.7492C21.7305 16.5995 21.2655 16.5068 20.7935 16.4569Z" fill="#263238"/>
  <path fill-rule="evenodd" clip-rule="evenodd" d="M19.3903 16.4569V0.455489C16.8582 0.583825 14.3833 1.20422 12.0872 2.28096L18.0384 16.7349C18.4747 16.5924 18.9253 16.4996 19.3903 16.4569Z" fill="#263238"/>
  <path fill-rule="evenodd" clip-rule="evenodd" d="M16.9631 17.1374L11.0406 2.76183C8.76593 3.92418 6.7131 5.49294 4.99642 7.38259L15.6541 18.0074C16.0547 17.6722 16.491 17.3799 16.9631 17.1374Z" fill="#263238"/>
  <path fill-rule="evenodd" clip-rule="evenodd" d="M4.25846 8.25272C2.69197 10.1067 1.50464 12.2531 0.767864 14.5563L14.015 20.0827C14.2438 19.6334 14.5299 19.2055 14.859 18.8205L4.25846 8.25272Z" fill="#263238"/>
  <path fill-rule="evenodd" clip-rule="evenodd" d="M13.5499 21.145L0.488848 15.6971C0.1884 18.0217 0.245624 20.3749 0.660478 22.6781H13.2423C13.2852 22.1576 13.3926 21.6441 13.5499 21.145Z" fill="#263238"/>
  <path fill-rule="evenodd" clip-rule="evenodd" d="M13.2465 23.8293H0.986565C1.73044 25.7546 2.6961 27.5801 3.85487 29.2843L13.5398 25.3196C13.3896 24.8347 13.2895 24.3356 13.2465 23.8293Z" fill="#263238"/>
  <path fill-rule="evenodd" clip-rule="evenodd" d="M14.8773 27.61C14.5339 27.2107 14.2407 26.7757 14.0046 26.305L4.65589 30.1271C5.95768 31.4178 7.39542 32.5516 8.94044 33.5285L14.8773 27.61Z" fill="#263238"/>
  <path fill-rule="evenodd" clip-rule="evenodd" d="M22.3105 36.1544C22.1746 35.0491 22.6824 33.9724 23.6266 33.3734L22.1459 29.7225C19.9071 30.4142 17.468 29.9222 15.6798 28.4104L9.9575 34.115C13.7414 36.1188 18.0831 36.8389 22.3105 36.1544Z" fill="#263238"/>
  <path fill-rule="evenodd" clip-rule="evenodd" d="M23.1448 29.3113L24.6326 32.9908C25.7842 32.7983 26.9286 33.3188 27.5438 34.3029C28.1804 34.0033 28.8098 33.6896 29.4321 33.3616L24.4895 28.4271C24.0747 28.7765 23.624 29.076 23.1448 29.3113Z" fill="#263238"/>
  <path fill-rule="evenodd" clip-rule="evenodd" d="M40.9312 25.266C40.5163 24.8595 40.2302 24.339 40.1158 23.7614H26.8901C26.7757 25.1804 26.2106 26.5281 25.295 27.612L30.4809 32.7817C34.2504 30.6996 37.7554 28.1753 40.9312 25.266Z" fill="#263238"/>
  <path fill-rule="evenodd" clip-rule="evenodd" d="M33.4602 5.37941C34.0825 5.99977 34.6619 6.65581 35.2055 7.34746L24.4762 18.0436C24.0828 17.7156 23.6608 17.4375 23.2102 17.2021L28.5319 4.51657C29.519 4.71623 30.5418 4.37395 31.2213 3.62521C32.0081 4.15288 32.7592 4.74477 33.4602 5.37941Z" fill="#263238"/>
  <path d="M25.0962 37.5532C26.0482 37.5532 26.82 36.7807 26.82 35.8276C26.82 34.8746 26.0482 34.102 25.0962 34.102C24.1441 34.102 23.3723 34.8746 23.3723 35.8276C23.3723 36.7807 24.1441 37.5532 25.0962 37.5532Z" fill="#263238"/>
  <path d="M43.2691 24.6988C44.225 24.6988 45 23.9262 45 22.9732C45 22.0202 44.225 21.2476 43.2691 21.2476C42.3131 21.2476 41.5381 22.0202 41.5381 22.9732C41.5381 23.9262 42.3131 24.6988 43.2691 24.6988Z" fill="#263238"/>
  <path d="M29.0853 3.45124C30.0413 3.45124 30.8163 2.67865 30.8163 1.72562C30.8163 0.772586 30.0413 0 29.0853 0C28.1293 0 27.3544 0.772586 27.3544 1.72562C27.3544 2.67865 28.1293 3.45124 29.0853 3.45124Z" fill="#263238"/>
  <path fill-rule="evenodd" clip-rule="evenodd" d="M7.51995 49.9918V45.4636H9.46555L12.1121 48.5871V45.4924H13.4711V49.9918H11.3968L8.85039 47.0256V49.9918H7.51995Z" fill="#263238"/>
  <path fill-rule="evenodd" clip-rule="evenodd" d="M14.6118 49.9918V45.428H15.885V49.9918H14.6118Z" fill="#263238"/>
  <path fill-rule="evenodd" clip-rule="evenodd" d="M20.9831 48.3284H22.2492V48.9345C22.2492 49.562 21.7055 50.054 21.0761 49.9898H18.4439C17.7858 49.9898 17.2422 49.4978 17.1706 48.8489V46.5671C17.1706 45.8896 17.7643 45.3548 18.4439 45.4261H21.0761C21.6841 45.4261 22.192 45.8825 22.2563 46.4815V47.0947H20.9831C20.976 46.7881 20.7185 46.5528 20.4109 46.5671H19.0805C18.7443 46.5528 18.4581 46.8095 18.4439 47.1375V48.2784C18.4581 48.6136 18.7443 48.8631 19.0805 48.8489H20.4109C20.7113 48.8631 20.9688 48.635 20.9831 48.3284Z" fill="#263238"/>
  <path fill-rule="evenodd" clip-rule="evenodd" d="M24.8135 49.2734L24.5011 50H23.1476L25.0217 45.4848H27.1041L29.0303 50H27.5726L27.3644 49.2734H24.8135ZM26.8438 48.1835H25.282L26.0629 46.2633L26.8438 48.1835Z" fill="#263238"/>
  <path fill-rule="evenodd" clip-rule="evenodd" d="M31.3744 47.3833V49.9716H30.1011V45.4079H31.5675L33.8636 48.9661L36.0023 45.4079H37.4471V49.9716H36.1739V47.5258L34.7004 49.9716H33.041L31.3744 47.3833Z" fill="#263238"/>
  <path fill-rule="evenodd" clip-rule="evenodd" d="M38.6179 49.9918V45.3728H42.6264C43.2511 45.3728 43.7197 45.8918 43.8238 46.5146V47.7601C43.8238 48.3829 43.2511 48.9538 42.6264 48.9538H39.9714V49.9918H38.6179ZM39.9714 47.7082V46.5665H42.0017C42.7826 46.5665 42.7826 47.7082 42.0017 47.7082H39.9714Z" fill="#263238"/>
  <path fill-rule="evenodd" clip-rule="evenodd" d="M1.94509 48.2528V45.4005H0.671873V48.8732C0.671873 49.4793 1.16542 49.9641 1.76628 49.9641H5.33556C5.94351 49.9641 6.42992 49.4793 6.42992 48.8732V45.4361H5.1567V48.2528C5.1567 48.5665 4.89924 48.8232 4.5845 48.8232H2.51734C2.2026 48.8232 1.94509 48.5665 1.94509 48.2528Z" fill="#263238"/>
  <path fill-rule="evenodd" clip-rule="evenodd" d="M39.2247 14.7934C38.581 13.2745 37.8728 11.7842 37.1003 10.3224C36.7069 9.63072 36.292 8.95332 35.8557 8.29015L25.2767 18.8365C25.6129 19.243 25.9061 19.678 26.1422 20.1415L39.2247 14.7934Z" fill="#263238"/>
  <path fill-rule="evenodd" clip-rule="evenodd" d="M39.6799 15.852C40.3165 17.4992 40.8959 19.1749 41.3966 20.872C40.7528 21.2785 40.2951 21.9345 40.1306 22.6832H26.8978C26.8549 22.177 26.7619 21.6778 26.6045 21.1929L39.6799 15.852Z" fill="#263238"/>
</svg>